{"accessors" : [{"bufferView" : 0, "byteOffset" : 0, "componentType" : 5123, "count" : 2022, "type" : "SCALAR", "max" : [1698], "min" : [0]}, {"bufferView" : 1, "byteOffset" : 0, "componentType" : 5126, "count" : 1699, "type" : "VEC3", "max" : [-2225.990966796875, 465.4453430175781, -0], "min" : [-3084.806884765625, -915.95263671875, -3657.1728515625], "name" : "POSITION"}, {"bufferView" : 1, "byteOffset" : 12, "componentType" : 5126, "count" : 1699, "type" : "VEC3", "max" : [1.0000044107437134, 1.0000044107437134, 1.0000044107437134], "min" : [-1.0000044107437134, -1.0000044107437134, -1.0000044107437134], "name" : "NORMAL"}], "asset" : {"generator" : "Aspose.3D 24.1.0", "version" : "2.0"}, "buffers" : [{"uri" : "data:application/octet-stream;base64,", "byteLength" : 52580}], "bufferViews" : [{"buffer" : 0, "byteOffset" : 0, "byteLength" : 4044, "target" : 34963}, {"buffer" : 0, "byteOffset" : 4048, "byteLength" : 48528, "byteStride" : 24, "target" : 34962}], "materials" : [{"name" : "mat0", "pbrMetallicRoughness" : {"baseColorFactor" : [0.800000011920929, 0.800000011920929, 0.800000011920929, 1], "metallicFactor" : 0, "roughnessFactor" : 0.4000000059604645}, "emissiveFactor" : [0, 0, 0], "alphaMode" : "OPAQUE", "doubleSided" : true}], "meshes" : [{"primitives" : [{"attributes" : {"POSITION" : 1, "NORMAL" : 2}, "indices" : 0, "material" : 0, "mode" : 4}]}], "nodes" : [{"mesh" : 0, "name" : "imagetostl_mesh0"}], "scene" : 0, "scenes" : [{"nodes" : [0]}]}